<svg version="1.0" xmlns="http://www.w3.org/2000/svg" viewBox="0 0 225.000000 225.000000" preserveAspectRatio="xMidYMid meet"> <g transform="translate(0.000000,225.000000) scale(0.100000,-0.100000)" fill="#000000" stroke="none"> <path d="M49 2180 l-30 -29 3 -843 c2 -464 7 -850 11 -859 6 -13 561 -331 684 -393 39 -20 62 -20 88 0 22 16 32 102 34 272 l1 82 324 0 c312 0 324 1 350 21 l26 20 0 270 0 269 -75 0 -75 0 0 -215 0 -215 -273 0 -274 0 -7 617 c-6 515 -10 621 -22 634 -8 9 -100 65 -204 125 -141 81 -186 110 -173 116 10 3 228 7 486 7 l467 1 0 -275 0 -275 75 0 75 0 0 328 0 329 -23 21 -23 22 -708 0 -708 0 -29 -30z"/><path d="M1722 1588 c-8 -8 -12 -49 -12 -120 l0 -108 -187 -1 c-230 0 -279 -7 -310 -43 -34 -40 -31 -96 6 -138 l29 -33 231 -3 231 -3 0 -112 c0 -104 2 -113 22 -126 19 -12 30 -7 127 59 172 118 358 259 365 277 10 25 -21 52 -229 203 -239 172 -246 175 -273 148z"/></g></svg>
