<svg version="1.0" xmlns="http://www.w3.org/2000/svg"
 width="980.000000pt" height="858.000000pt" viewBox="0 0 980.000000 858.000000"
 preserveAspectRatio="xMidYMid meet">

<g transform="translate(0.000000,858.000000) scale(0.100000,-0.100000)"
fill="#000000" stroke="none">
<path d="M2398 8570 c-755 -63 -1432 -439 -1883 -1045 -270 -363 -435 -774
-497 -1235 -7 -54 -12 -194 -12 -325 0 -186 4 -257 22 -370 46 -295 117 -513
271 -837 90 -191 235 -378 590 -764 531 -576 1392 -1451 2356 -2393 947 -925
1640 -1591 1655 -1591 15 0 696 654 1650 1586 1114 1088 2185 2185 2601 2663
144 166 290 371 341 480 170 361 241 582 284 886 25 175 25 528 0 700 -59 407
-191 754 -411 1085 -109 163 -192 266 -323 397 -420 422 -948 679 -1547 754
-147 18 -474 16 -625 -5 -492 -66 -922 -250 -1305 -557 -226 -181 -458 -447
-601 -689 -32 -55 -62 -100 -66 -100 -4 0 -19 21 -32 48 -13 26 -51 88 -83
137 -423 640 -1094 1062 -1843 1159 -149 20 -407 27 -542 16z m4957 -610 c970
-81 1727 -827 1826 -1800 19 -188 -1 -436 -51 -655 -41 -174 -139 -415 -221
-541 -21 -33 -39 -72 -39 -86 0 -128 -1088 -1277 -2700 -2852 -914 -893 -1240
-1201 -1270 -1201 -60 0 -2153 2049 -3084 3020 -568 592 -886 963 -886 1033 0
13 -20 56 -44 96 -142 227 -241 547 -268 862 -23 274 25 594 129 859 237 602
747 1052 1372 1210 182 45 306 58 526 52 368 -9 644 -86 963 -266 306 -173
906 -739 1199 -1130 48 -64 89 -118 91 -121 2 -3 12 6 21 20 178 271 571 679
976 1016 199 165 210 173 407 274 225 116 460 182 738 209 122 12 180 12 315
1z"/>
</g>
</svg>
