<svg version="1.0" xmlns="http://www.w3.org/2000/svg"
 width="512.000000pt" height="512.000000pt" viewBox="0 0 512.000000 512.000000"
 preserveAspectRatio="xMidYMid meet">

<g transform="translate(0.000000,512.000000) scale(0.100000,-0.100000)"
fill="#000000" stroke="none">
<path d="M626 4904 c-160 -35 -270 -96 -391 -218 -129 -130 -189 -244 -221
-416 -17 -96 -20 -2115 -3 -2220 27 -171 100 -313 223 -436 96 -96 190 -154
318 -197 l93 -31 301 -4 301 -4 178 -444 c187 -469 198 -489 272 -520 71 -30
167 -9 220 48 13 13 103 224 202 469 l178 444 1089 5 1089 5 93 32 c128 43
222 102 318 197 123 123 196 265 223 436 17 105 14 2124 -3 2220 -32 174 -92
286 -226 420 -105 105 -195 160 -330 202 l-75 23 -1890 2 c-1640 1 -1899 0
-1959 -13z m3847 -399 c103 -43 186 -127 229 -232 l23 -58 3 -1029 c1 -666 -1
-1048 -8 -1084 -30 -162 -150 -287 -308 -321 -37 -8 -379 -11 -1160 -11 -749
0 -1119 -4 -1145 -11 -78 -21 -102 -60 -220 -357 -60 -149 -112 -270 -116
-268 -4 3 -54 122 -111 265 -110 278 -135 321 -204 352 -37 17 -72 19 -368 19
-203 0 -347 4 -380 11 -157 34 -277 158 -308 319 -6 33 -10 425 -10 1059 0
1099 -2 1065 57 1174 31 56 104 126 160 153 92 44 34 43 1973 41 1813 -2 1846
-2 1893 -22z"/>
</g>
</svg>
